<?xml version="1.0" encoding="UTF-8" standalone="no"?>
<svg
   xmlns:dc="http://purl.org/dc/elements/1.1/"
   xmlns:cc="http://creativecommons.org/ns#"
   xmlns:rdf="http://www.w3.org/1999/02/22-rdf-syntax-ns#"
   xmlns:svg="http://www.w3.org/2000/svg"
   xmlns="http://www.w3.org/2000/svg"
   xmlns:sodipodi="http://sodipodi.sourceforge.net/DTD/sodipodi-0.dtd"
   xmlns:inkscape="http://www.inkscape.org/namespaces/inkscape"
   version="1.1"
   width="80"
   height="80.0009"
   id="svg6584"
   sodipodi:docname="Airport15.svg"
   inkscape:version="0.92.3 (2405546, 2018-03-11)">
  <sodipodi:namedview
     pagecolor="#ffffff"
     bordercolor="#666666"
     borderopacity="1"
     objecttolerance="10"
     gridtolerance="10"
     guidetolerance="10"
     inkscape:pageopacity="0"
     inkscape:pageshadow="2"
     inkscape:window-width="1280"
     inkscape:window-height="951"
     id="namedview7"
     showgrid="false"
     inkscape:zoom="2.36"
     inkscape:cx="-36.143899"
     inkscape:cy="-8.9159603"
     inkscape:window-x="0"
     inkscape:window-y="24"
     inkscape:window-maximized="1"
     inkscape:current-layer="svg6584"
     fit-margin-top="0"
     fit-margin-left="0"
     fit-margin-right="0"
     fit-margin-bottom="0"
     inkscape:pagecheckerboard="true" />
  <defs
     id="defs6586" />
  <metadata
     id="metadata6589">
    <rdf:RDF>
      <cc:Work
         rdf:about="">
        <dc:format>image/svg+xml</dc:format>
        <dc:type
           rdf:resource="http://purl.org/dc/dcmitype/StillImage" />
        <dc:title></dc:title>
      </cc:Work>
    </rdf:RDF>
  </metadata>
  <g
     transform="matrix(1.0909091,0,0,1.0909091,-14.545454,-1053.4854)"
     id="layer1"
     style="fill:#000000;fill-opacity:1;stroke:#ffffff;stroke-width:2.5;stroke-miterlimit:4;stroke-dasharray:none;stroke-opacity:1"
     inkscape:export-xdpi="33.18"
     inkscape:export-ydpi="33.18">
    <path
       d="m 85.416667,1008.6124 v 4.1667 L 56.25,1008.6124 v 16.6659 l 8.333333,8.3341 c 0,2.0834 -2.083333,4.1667 -4.166666,4.1667 -8.333334,0 -20.833334,0 -20.833334,0 -2.083333,0 -4.166666,-2.0833 -4.166666,-4.1667 L 43.75,1025.2783 v -16.6667 l -29.166667,4.1667 v -4.1667 L 43.75,991.94492 c 0,0 0,-1.38875 0,-8.33333 0,-4.16666 2.083333,-16.66665 6.25,-16.66665 4.166667,0 6.25,12.49999 6.25,16.66665 0,6.94458 0,8.33333 0,8.33333 z"
       id="path7712"
       style="display:inline;fill:#000000;fill-opacity:1;stroke:#ffffff;stroke-width:2.5;stroke-miterlimit:4;stroke-dasharray:none;stroke-opacity:1"
       inkscape:connector-curvature="0" />
  </g>
  <rect
     style="fill:#ef2929;fill-opacity:1;stroke:none;stroke-width:0.26267865;stroke-opacity:1"
     id="rect4537"
     width="8"
     height="8"
     x="36"
     y="36.00045" />
</svg>
